<svg version="1.1" viewBox="0.0 0.0 960.0 720.0" fill="none" stroke="none" stroke-linecap="square" stroke-miterlimit="10" xmlns:xlink="http://www.w3.org/1999/xlink" xmlns="http://www.w3.org/2000/svg"><clipPath id="p.0"><path d="m0 0l960.0 0l0 720.0l-960.0 0l0 -720.0z" clip-rule="nonzero"/></clipPath><g clip-path="url(#p.0)"><path fill="#000000" fill-opacity="0.0" d="m0 0l960.0 0l0 720.0l-960.0 0z" fill-rule="evenodd"/><path fill="#cfe2f3" d="m519.6772 261.29166l0 0c0 -8.552628 6.9332275 -15.485886 15.48584 -15.485886l214.82355 0c4.1071167 0 8.0460205 1.631546 10.950134 4.5357056c2.9041748 2.9041748 4.5357056 6.8430634 4.5357056 10.95018l0 61.94162c0 8.552612 -6.9332275 15.48587 -15.48584 15.48587l-214.82355 0l0 0c-8.552612 0 -15.48584 -6.933258 -15.48584 -15.48587z" fill-rule="evenodd"/><path stroke="#000000" stroke-width="1.0" stroke-linejoin="round" stroke-linecap="butt" d="m519.6772 261.29166l0 0c0 -8.552628 6.9332275 -15.485886 15.48584 -15.485886l214.82355 0c4.1071167 0 8.0460205 1.631546 10.950134 4.5357056c2.9041748 2.9041748 4.5357056 6.8430634 4.5357056 10.95018l0 61.94162c0 8.552612 -6.9332275 15.48587 -15.48584 15.48587l-214.82355 0l0 0c-8.552612 0 -15.48584 -6.933258 -15.48584 -15.48587z" fill-rule="evenodd"/><path fill="#000000" d="m581.0807 253.49496q-2.515625 0.4375 -5.1875 0.65625l-0.296875 -1.546875q5.125 -0.234375 6.453125 -0.75l0.75 -0.296875l1.328125 1.40625q0.453125 0.375 -0.296875 0.53125q-2.96875 2.296875 -6.015625 4.671875q4.609375 -0.59375 9.796875 -1.046875l0 1.5625l-2.8125 0.21875q-2.890625 0.234375 -4.609375 1.9375q-0.890625 0.890625 -0.890625 2.21875q0 1.046875 0.671875 1.71875q1.109375 1.109375 4.671875 1.1875l-0.65625 1.921875q-3.796875 -0.296875 -5.28125 -1.78125q-1.109375 -1.109375 -1.109375 -2.671875q0 -1.859375 1.109375 -2.96875q0.59375 -0.59375 1.484375 -1.1875q-4.0 0.515625 -7.34375 1.109375l-0.375 -1.625q1.5625 -0.21875 3.046875 -0.453125q2.0 -1.40625 5.5625 -4.8125zm20.1875 4.21875q0.078125 -1.40625 -0.8125 -1.40625q-1.265625 0 -4.890625 3.640625l0 7.421875l-1.484375 0l0 -6.09375l-3.265625 4.09375l-1.1875 -1.1875l2.96875 -3.5q0.8125 -1.03125 1.484375 -2.140625l0 -1.78125l-3.265625 1.109375l-0.453125 -1.5625l3.71875 -0.96875l0 -4.375l1.328125 0q0.671875 0.15625 0.15625 0.59375l0 3.34375l0.8125 0.4375q0.671875 0.296875 -0.15625 0.671875l-0.65625 1.40625l0 0.53125q3.484375 -3.265625 5.265625 -3.265625q2.21875 0 2.0 2.96875l-0.375 5.703125q-0.0625 1.1875 0.890625 1.1875q0.96875 0 1.421875 -0.515625q0.65625 -0.8125 1.109375 -1.921875l1.265625 1.03125q-0.75 1.40625 -1.421875 2.078125q-0.953125 0.96875 -2.21875 0.96875q-2.75 0 -2.59375 -2.828125l0.359375 -5.640625zm22.859375 0.96875l-2.8125 0.21875q-2.890625 0.234375 -4.609375 1.9375q-0.890625 0.890625 -0.890625 2.21875q0 1.046875 0.671875 1.71875q1.109375 1.109375 4.671875 1.1875l-0.65625 1.921875q-3.796875 -0.296875 -5.28125 -1.78125q-1.109375 -1.109375 -1.109375 -2.671875q0 -1.859375 1.109375 -2.96875q0.59375 -0.59375 1.484375 -1.1875q-4.0 0.515625 -7.34375 1.109375l-0.375 -1.625q1.5625 -0.21875 3.046875 -0.453125q2.0 -1.40625 5.5625 -4.8125q-2.515625 0.4375 -5.1875 0.65625l-0.296875 -1.546875q5.125 -0.234375 6.453125 -0.75l0.75 -0.296875l1.328125 1.40625q0.453125 0.375 -0.296875 0.53125q-2.96875 2.296875 -6.015625 4.671875q4.609375 -0.59375 9.796875 -1.046875l0 1.5625zm-0.140625 -3.859375q-1.703125 -1.40625 -2.890625 -1.859375l0.734375 -0.890625q1.1875 0.53125 2.890625 1.859375l-0.734375 0.890625zm0.96875 -1.921875q-1.640625 -1.265625 -2.90625 -1.859375l0.75 -0.890625q1.484375 0.734375 2.890625 1.859375l-0.734375 0.890625zm13.5703125 4.8125q0.078125 -1.40625 -0.8125 -1.40625q-1.265625 0 -4.890625 3.640625l0 7.421875l-1.484375 0l0 -6.09375l-3.265625 4.09375l-1.1875 -1.1875l2.96875 -3.5q0.8125 -1.03125 1.484375 -2.140625l0 -1.78125l-3.265625 1.109375l-0.453125 -1.5625l3.71875 -0.96875l0 -4.375l1.328125 0q0.671875 0.15625 0.15625 0.59375l0 3.34375l0.8125 0.4375q0.671875 0.296875 -0.15625 0.671875l-0.65625 1.40625l0 0.53125q3.484375 -3.265625 5.265625 -3.265625q2.21875 0 2.0 2.96875l-0.375 5.703125q-0.0625 1.1875 0.890625 1.1875q0.96875 0 1.421875 -0.515625q0.65625 -0.8125 1.109375 -1.921875l1.265625 1.03125q-0.75 1.40625 -1.421875 2.078125q-0.953125 0.96875 -2.21875 0.96875q-2.75 0 -2.59375 -2.828125l0.359375 -5.640625zm16.859314 -2.0q-1.265625 7.421875 -3.046875 9.203125q-0.96868896 0.96875 -1.999939 0.96875q-1.1875 0 -1.859375 -0.671875q-1.78125 -1.78125 -1.78125 -4.453125q0 -3.265625 2.296875 -5.5625q2.53125 -2.53125 6.156189 -2.53125q3.265625 0 5.125 1.859375q2.078125 2.078125 2.078125 4.90625q0 3.03125 -1.921875 4.96875q-1.265625 1.265625 -3.859375 2.453125l-1.5625 -1.5625q2.59375 -0.8125 4.078125 -2.296875q1.40625 -1.421875 1.40625 -3.421875q0 -2.375 -1.546875 -3.9375q-1.5625 -1.546875 -4.90625 -1.40625l1.34375 0.671875q0.890625 0.375 0 0.8125zm-1.71875 -1.40625q-1.921814 0.4375 -3.328064 1.859375q-1.9375 1.921875 -1.9375 4.75q0 1.703125 1.109375 2.8125q0.234375 0.21875 0.671875 0.21875q0.453125 0 0.96875 -0.515625q1.703064 -1.703125 2.515564 -9.125zm21.90625 2.296875l-10.328125 0l0 -1.625l12.03125 0l0 10.609375l-1.703125 0l0 -0.8125l-10.328125 0l0 -1.640625l10.328125 0l0 -6.53125zm19.140625 0.96875q-3.9375 8.15625 -13.203125 8.609375q-0.375 0.96875 -0.75 0.15625l-0.59375 -1.9375q9.65625 -0.21875 12.984375 -7.9375l1.5625 1.109375zm-10.46875 0q-2.0 -1.859375 -3.78125 -3.046875l1.265625 -1.5625q1.5625 0.96875 3.9375 3.203125l-1.421875 1.40625zm24.355469 1.03125q2.671875 2.828125 4.0 5.203125l-1.625 1.109375q-1.5625 -2.75 -3.796875 -5.125l1.421875 -1.1875zm-3.5625 -3.1875l6.828125 0l0 1.640625l-6.828125 0l0 10.3125l-1.71875 0l0 -10.3125l-6.671875 0l0 -1.640625l6.671875 0l0 -4.15625l1.5625 0q0.8125 0.15625 0.15625 0.59375l0 3.5625zm-3.9375 4.078125q0.4375 0.375 -0.296875 0.53125q-1.109375 2.4375 -2.828125 5.109375l-1.625 -0.890625q1.859375 -2.671875 3.109375 -5.640625l1.640625 0.890625zm8.984375 -4.890625q-1.34375 -1.40625 -2.453125 -2.296875l0.890625 -0.890625q1.265625 0.953125 2.453125 2.21875l-0.890625 0.96875zm2.078125 -1.046875q-1.34375 -1.484375 -2.453125 -2.4375l0.96875 -0.828125q1.25 0.96875 2.4375 2.375l-0.953125 0.890625z" fill-rule="nonzero"/><path fill="#cfe2f3" d="m336.7743 30.968504l311.6115 0l0 117.09711l-311.6115 0z" fill-rule="evenodd"/><path stroke="#000000" stroke-width="1.0" stroke-linejoin="round" stroke-linecap="butt" d="m336.7743 30.968504l311.6115 0l0 117.09711l-311.6115 0z" fill-rule="evenodd"/><path fill="#000000" d="m471.3984 89.68706q3.1875 2.4375 6.296875 5.640625l-1.484375 1.265625q-3.109375 -3.28125 -6.0 -5.5q-2.90625 3.109375 -6.609375 5.5625l-1.40625 -1.265625q7.859375 -5.109375 10.09375 -10.234375l-8.09375 0.515625l-0.21875 -1.78125l8.609375 -0.375l0.890625 -0.21875l1.1875 1.1875q0.515625 0.515625 -0.296875 0.671875q-1.421875 2.453125 -2.96875 4.53125zm14.472656 -7.0625q-0.296875 0.890625 -0.75 1.71875l4.96875 0l0.828125 -0.296875l0.953125 0.953125q0.296875 0.375 -0.296875 0.59375q-0.59375 2.96875 -1.78125 5.421875l1.78125 1.1875l-1.109375 1.640625l-1.625 -1.1875q-2.15625 3.109375 -6.171875 5.125l-1.703125 -1.265625q4.453125 -1.859375 6.390625 -4.90625q-1.859375 -1.1875 -3.640625 -2.15625l0.890625 -1.328125q2.296875 1.03125 3.78125 1.921875q1.109375 -2.296875 1.34375 -4.078125l-5.421875 0q-1.40625 2.53125 -3.484375 4.609375l-1.421875 -0.96875q3.796875 -3.9375 4.984375 -8.3125l1.78125 0.734375q0.59375 0.296875 -0.296875 0.59375zm8.15625 7.71875l0 -1.625l16.546875 0l0 1.625l-16.546875 0zm21.445343 -2.8125q3.640625 1.03125 7.359375 2.8125l-0.890625 1.71875q-3.9375 -2.015625 -6.46875 -2.671875l0 7.71875l-1.703125 0l0 -14.84375l1.484375 0q0.890625 0.0625 0.21875 0.59375l0 4.671875z" fill-rule="nonzero"/><path fill="#cfe2f3" d="m207.09448 209.03336l46.451614 -30.967743l46.451614 30.967743l-46.451614 30.967743z" fill-rule="evenodd"/><path stroke="#000000" stroke-width="1.0" stroke-linejoin="round" stroke-linecap="butt" d="m207.09448 209.03336l46.451614 -30.967743l46.451614 30.967743l-46.451614 30.967743z" fill-rule="evenodd"/><path fill="#000000" d="m247.68672 199.31273q-0.671875 1.703125 -2.0 3.34375l-0.828125 -1.5625q2.453125 -3.34375 2.75 -6.3125l-2.296875 0l0 -1.40625l2.375 0l0 -3.640625l1.40625 0q0.59375 0.078125 0.078125 0.453125l0 3.1875l1.78125 0l0 0.515625q3.1875 -1.1875 4.671875 -4.375l1.4843903 0.4375q0.296875 0.375 -0.296875 0.453125q1.859375 2.21875 5.265625 3.703125l-0.65625 1.484375q-0.96875 -0.359375 -1.9375 -0.953125l0 1.109375l-2.453125 0l0 1.484375l3.859375 0l0 4.75l-1.25 0l0 -0.375l-2.375 0q1.40625 2.15625 4.96875 2.96875l-0.75 1.640625q-3.40625 -1.046875 -5.046875 -3.5625q-1.4843903 3.109375 -5.5625153 3.859375l-0.59375 -1.484375q4.015625 -0.75 5.046875 -3.421875l-2.296875 0l0 0.453125l-1.265625 0l0 -4.828125l3.78125 0l0 -1.484375l-2.59375 0l0 -1.046875q-0.8125 0.59375 -2.078125 1.046875l-0.375 -0.96875l-1.328125 0l0 2.296875q1.484375 0.96875 2.15625 1.640625l-0.828125 1.40625q-0.515625 -0.671875 -1.328125 -1.328125l0 7.859375l-1.484375 0l0 -7.34375zm8.45314 -7.796875q-1.0312653 1.859375 -2.9687653 3.046875l6.2343903 0q-1.703125 -1.046875 -3.265625 -3.046875zm3.5 6.90625l-2.609375 0l0 2.0l2.609375 0l0 -2.0zm-6.6093903 0l0 2.0l2.515625 0l0 -2.0l-2.515625 0z" fill-rule="nonzero"/><path fill="#000000" d="m245.6086 227.03148q2.671875 -1.125 4.078125 -2.96875l1.34375 0.953125q0.296875 0.453125 -0.296875 0.375q-1.9375 2.15625 -4.234375 3.125l-0.890625 -1.484375zm14.250015 -2.671875q-0.59375 -0.59375 -1.1875 -1.1875l-4.5312653 0.296875l0 4.96875l-1.484375 0l0 -4.90625l-5.34375 0.375q-0.515625 0.59375 -0.671875 0l-0.21875 -1.484375l5.34375 -0.078125q-1.5625 -1.109375 -3.34375 -2.140625l0.890625 -1.125q0.59375 0.296875 1.125 0.671875l2.21875 -2.21875l-5.34375 0l0 1.84375l-1.484375 0l0 -3.03125l6.828125 0l0 -1.5625l-6.3125 0l0 -1.40625l6.3125 0l0 -1.859375l1.40625 0q0.59375 0.078125 0.078125 0.4375l0 1.421875l6.3906403 0l0 1.40625l-6.3906403 0l0 1.5625l6.8281403 0l0 2.890625l-1.484375 0l0 -1.703125l-6.1562653 0l0.8125 0.65625q0.21875 0.375 -0.21875 0.296875l-2.453125 1.859375q0.671875 0.453125 1.34375 0.890625l3.1875 -2.8125l1.1875153 0.890625q0.21875 0.359375 -0.21875 0.296875l-3.5000153 2.671875l4.0156403 -0.15625q-0.515625 -0.375 -1.109375 -0.8125l1.109375 -0.890625q1.921875 1.109375 3.640625 2.890625l-1.265625 1.046875zm0.8125 3.859375q-2.75 -0.75 -4.9687653 -3.203125l1.3281403 -0.953125q1.5625 1.546875 4.3125 2.515625l-0.671875 1.640625z" fill-rule="nonzero"/><path fill="#cfe2f3" d="m540.0 300.00186l46.4516 -30.967743l46.4516 30.967743l-46.4516 30.967743z" fill-rule="evenodd"/><path stroke="#000000" stroke-width="1.0" stroke-linejoin="round" stroke-linecap="butt" d="m540.0 300.00186l46.4516 -30.967743l46.4516 30.967743l-46.4516 30.967743z" fill-rule="evenodd"/><path fill="#000000" d="m578.2172 295.40625q0.671875 -1.78125 0.671875 -4.453125l1.484375 0.140625q0.296875 0.15625 -0.15625 0.515625q-0.078125 2.671875 -0.734375 4.390625l-1.265625 -0.59375zm0.375 -11.578125l0.65625 0.359375q1.265625 -1.84375 2.15625 -3.703125l1.34375 0.96875q0.296875 0.21875 -0.296875 0.296875l-2.15625 3.109375l1.109375 0.8125l1.9375 -2.96875l1.25 1.125q0.296875 0.296875 -0.359375 0.21875l-3.265625 4.453125l2.515625 -0.15625q-0.140625 -0.734375 -0.671875 -1.484375l1.265625 -0.4375q0.96875 1.328125 1.34375 3.34375l-1.34375 0.4375l-0.21875 -0.8125l-1.484375 0.140625l0 8.03125l-1.484375 0l0 -7.875l-2.453125 0.21875q-0.078125 0.515625 -0.375 0.21875l-0.4375 -1.625l1.703125 0l1.34375 -1.703125q-1.265625 -1.046875 -2.828125 -1.78125l0.75 -1.1875zm8.078125 7.9375q-0.515625 2.671875 -2.375 4.609375l-1.03125 -0.90625q2.453125 -2.671875 2.453125 -6.234375l0 -5.40625l8.3125 0l0 3.921875l-7.0625 0l0 1.34375l7.71875 0l0 7.28125q0 1.1875 -0.890625 1.1875l-0.890625 0l-0.21875 -1.1875l0.515625 0q0.234375 0 0.234375 -0.234375l0 -2.515625l-1.125 0l0 3.40625l-1.25 0l0 -3.40625l-0.890625 0l0 3.40625l-1.265625 0l0 -3.40625l-0.96875 0l0 3.859375l-1.265625 0l0 -5.71875zm-2.734375 -1.046875q0.734375 1.125 0.734375 2.453125l-1.1875 0.453125q-0.078125 -1.421875 -0.734375 -2.453125l1.1875 -0.453125zm8.375 -0.4375l0 2.15625l1.125 0l0 -2.15625l-1.125 0zm-2.140625 0l0 2.15625l0.890625 0l0 -2.15625l-0.890625 0zm-2.234375 0l0 2.15625l0.96875 0l0 -2.15625l-0.96875 0zm-0.96875 -5.265625l0 1.546875l5.796875 0l0 -1.546875l-5.796875 0zm7.65625 -2.453125l-9.65625 0l0 -1.40625l9.65625 0l0 1.40625z" fill-rule="nonzero"/><path fill="#000000" d="m583.3422 303.29688q-0.234375 0.671875 -0.828125 1.265625l3.640625 0q0.515625 -1.1875 0.75 -1.9375l1.484375 0.296875q0.296875 0.296875 -0.234375 0.375l-0.59375 1.265625l5.9375 0l0 1.1875l-6.15625 0l0 0.96875l4.96875 0l0 1.1875l-4.96875 0l0 0.953125l4.96875 0l0 1.1875l-4.96875 0l0 1.125l6.6875 0l0 1.1875l-6.6875 0l0 1.109375l7.28125 0l0 1.40625l-5.796875 0q2.375 1.703125 6.09375 2.53125l-0.53125 1.484375q-4.15625 -1.046875 -7.046875 -3.71875l0 4.390625l-1.484375 0l0 -4.3125q-2.296875 2.375 -7.34375 3.859375l-0.515625 -1.40625q3.78125 -0.96875 6.375 -2.828125l-5.9375 0l0 -1.40625l7.421875 0l0 -1.109375l-2.59375 0l-2.59375 0l0 -5.28125q-0.671875 0.75 -1.640625 1.484375l-0.8125 -1.03125q2.8125 -2.296875 3.9375 -5.046875l1.40625 0.4375q0.296875 0.296875 -0.21875 0.375zm-1.421875 6.75l0 1.125l3.9375 0l0 -1.125l-3.9375 0zm0 -2.140625l0 0.953125l3.9375 0l0 -0.953125l-3.9375 0zm0 -2.15625l0 0.96875l3.9375 0l0 -0.96875l-3.9375 0z" fill-rule="nonzero"/><path fill="#cfe2f3" d="m648.3858 300.00186l46.45166 -30.967743l46.4516 30.967743l-46.4516 30.967743z" fill-rule="evenodd"/><path stroke="#000000" stroke-width="1.0" stroke-linejoin="round" stroke-linecap="butt" d="m648.3858 300.00186l46.45166 -30.967743l46.4516 30.967743l-46.4516 30.967743z" fill-rule="evenodd"/><path fill="#000000" d="m699.14996 293.32812l-1.484375 0l0 -10.328125l1.40625 0q0.59375 0.078125 0.078125 0.453125l0 9.875zm-3.265625 -10.84375q-0.375 1.1875 -1.484375 2.828125l-1.5625 -0.828125q0.96875 -1.328125 1.625 -3.109375l1.421875 0.515625q0.734375 0.296875 0 0.59375zm-7.5 2.671875q-0.671875 -1.703125 -1.484375 -2.75l1.484375 -0.8125q0.96875 1.046875 1.625 2.75l-1.625 0.8125zm7.5 11.140625q0 0.96875 -0.96875 0.96875l-1.703125 0l-0.234375 -1.421875l1.125 0q0.296875 0 0.296875 -0.296875l0 -2.453125l-5.796875 0l0 4.234375l-1.484375 0l0 -11.5l3.5625 0l0 -5.203125l1.40625 0q0.59375 0.078125 0.078125 0.453125l0 4.75l3.71875 0l0 10.46875zm-7.28125 -4.609375l5.796875 0l0 -1.484375l-5.796875 0l0 1.484375zm5.796875 -4.453125l-5.796875 0l0 1.5625l5.796875 0l0 -1.5625zm6.59375 -6.15625l1.421875 0q0.59375 0.078125 0.0625 0.4375l0 14.703125q0 1.046875 -0.953125 1.046875l-1.859375 0l-0.21875 -1.421875l1.25 0q0.296875 0 0.296875 -0.296875l0 -14.46875z" fill-rule="nonzero"/><path fill="#000000" d="m697.07184 304.1875q-1.640625 3.125 -5.125 5.34375l-0.890625 -1.40625l-0.453125 1.109375q1.484375 1.859375 1.484375 4.234375q0 3.046875 -1.703125 3.046875l-1.265625 0l-0.140625 -1.421875l0.890625 0q0.8125 0 0.8125 -1.78125q0 -1.703125 -1.5625 -4.078125l1.71875 -4.59375l-2.3125 0l0 14.921875l-1.484375 0l0 -16.34375l4.53125 0l0.15625 -0.140625l1.03125 1.03125q0.375 0.375 -0.140625 0.453125l-1.421875 3.34375q3.421875 -1.640625 5.125 -5.34375l1.859375 0.21875q0.296875 0.296875 -0.21875 0.375l-0.078125 0.140625q2.0 2.890625 5.5625 4.3125l-0.8125 1.625q-3.640625 -1.703125 -5.5625 -5.046875zm3.484375 9.578125q1.109375 1.625 2.96875 3.1875l-1.1875 1.1875q-1.640625 -1.265625 -3.046875 -3.640625l1.265625 -0.734375zm-3.640625 -3.9375l-2.8125 0l0 -1.40625l6.75 0l0 1.40625l-2.453125 0l0 1.78125l4.15625 0l0 1.40625l-4.15625 0l0 5.0625q0 1.25 -1.265625 1.25l-1.25 0l-0.296875 -1.40625l1.109375 0q0.21875 0 0.21875 -0.21875l0 -4.6875l-4.53125 0l0 -1.40625l4.53125 0l0 -1.78125zm-1.484375 4.609375q0.515625 0.359375 -0.140625 0.515625q-0.96875 1.859375 -2.75 3.484375l-1.109375 -1.109375q1.921875 -1.5625 2.734375 -3.5625l1.265625 0.671875z" fill-rule="nonzero"/><path fill="#cfe2f3" d="m323.8084 209.03336l46.4516 -30.967743l46.45163 30.967743l-46.45163 30.967743z" fill-rule="evenodd"/><path stroke="#000000" stroke-width="1.0" stroke-linejoin="round" stroke-linecap="butt" d="m323.8084 209.03336l46.4516 -30.967743l46.45163 30.967743l-46.45163 30.967743z" fill-rule="evenodd"/><path fill="#000000" d="m372.1975 189.2971l1.703125 0.4375q0.296875 0.296875 -0.21875 0.375l-0.96875 1.40625l4.078125 0l0 5.125l-6.75 0l0 1.484375l7.5 0l0 5.5625l-1.484375 0l0 -0.515625l-6.015625 0l0 0.671875l-1.484375 0l0 -12.328125l2.59375 0l1.046875 -2.21875zm-10.390625 15.4375q1.703125 -0.53125 2.96875 -1.34375l0 -4.828125l-2.53125 0l0 -1.40625l4.015625 0l0 6.09375q1.25 1.328125 4.0 1.328125l8.609375 0l-0.21875 1.421875l-9.125 0q-2.609375 0 -3.9375 -1.5q-1.5625 1.5 -2.96875 2.09375l-0.8125 -1.859375zm13.5 -9.5l0 -2.3125l-5.265625 0l0 2.3125l5.265625 0zm0.75 6.53125l0 -2.234375l-6.015625 0l0 2.234375l6.015625 0zm-10.46875 -7.71875q-1.34375 -1.640625 -2.59375 -2.609375l1.109375 -1.25q1.5625 0.953125 2.75 2.59375l-1.265625 1.265625z" fill-rule="nonzero"/><path fill="#000000" d="m368.6975 216.64085l-2.21875 0l0 1.25q0 6.234375 -3.640625 10.171875l-1.265625 -1.109375q3.421875 -3.859375 3.421875 -9.125l0 -1.1875l-2.75 0l0 -1.421875l2.75 0l0 -3.328125l1.40625 0q0.59375 0.0625 0.078125 0.4375l0 2.890625l3.703125 0l0 7.0625q0 2.96875 -0.4375 4.078125q-0.515625 1.265625 -2.15625 1.265625l-1.1875 0l-0.140625 -1.640625l1.1875 0q0.734375 0 0.953125 -0.671875q0.296875 -0.734375 0.296875 -2.8125l0 -5.859375zm2.75 -2.234375l6.53125 0l0 12.703125l-1.484375 0l0 -0.90625l-3.5625 0l0 1.203125l-1.484375 0l0 -13.0zm1.484375 1.40625l0 8.984375l3.5625 0l0 -8.984375l-3.5625 0z" fill-rule="nonzero"/></g></svg>